<?xml version="1.0" encoding="UTF-8" standalone="no"?>
<!-- Generator: Adobe Illustrator 18.0.0, SVG Export Plug-In . SVG Version: 6.00 Build 0)  -->

<svg
   version="1.1"
   id="Capa_1"
   x="0px"
   y="0px"
   viewBox="0 0 598.3 308.1958"
   enable-background="new 0 0 595.3 420"
   xml:space="preserve"
   sodipodi:docname="logosvg2.svg"
   inkscape:export-filename="..\..\..\..\Escritorio\logo.svg"
   inkscape:export-xdpi="96"
   inkscape:export-ydpi="96"
   inkscape:version="1.2.1 (9c6d41e410, 2022-07-14)"
   width="598.29999"
   height="308.19601"
   xmlns:inkscape="http://www.inkscape.org/namespaces/inkscape"
   xmlns:sodipodi="http://sodipodi.sourceforge.net/DTD/sodipodi-0.dtd"
   xmlns="http://www.w3.org/2000/svg"
   xmlns:svg="http://www.w3.org/2000/svg"><defs
   id="defs45" /><sodipodi:namedview
   id="namedview43"
   pagecolor="#ffffff"
   bordercolor="#000000"
   borderopacity="0"
   inkscape:showpageshadow="2"
   inkscape:pageopacity="0"
   inkscape:pagecheckerboard="0"
   inkscape:deskcolor="#d1d1d1"
   showgrid="false"
   inkscape:zoom="1.9738095"
   inkscape:cx="297.90109"
   inkscape:cy="130.20507"
   inkscape:window-width="1920"
   inkscape:window-height="1009"
   inkscape:window-x="-8"
   inkscape:window-y="-8"
   inkscape:window-maximized="1"
   inkscape:current-layer="Capa_1" />
<g
   id="g40"
   transform="matrix(1.2165993,0,0,1.2165993,-60.658171,-70.267473)"
   inkscape:export-filename="..\..\..\..\Escritorio\g40.svg"
   inkscape:export-xdpi="101.90545"
   inkscape:export-ydpi="101.90545"
   style="display:inline">
	<g
   id="g22"
   style="fill:#ffffff;fill-opacity:1">
		<g
   id="g20"
   style="fill:#ffffff;fill-opacity:1">
			<path
   d="m 263.6,278.8 c 1.5,0.9 2.7,2.1 3.6,3.6 0.9,1.5 1.3,3.2 1.3,5.1 0,1.9 -0.4,3.6 -1.3,5.1 -0.8,1.5 -2,2.7 -3.5,3.6 -1.5,0.9 -3.1,1.3 -4.9,1.3 -1.6,0 -3,-0.3 -4.3,-1 -1.3,-0.7 -2.4,-1.6 -3.2,-2.7 v 10.5 c 0,0.4 -0.1,0.7 -0.4,1 -0.3,0.3 -0.6,0.4 -1,0.4 -0.4,0 -0.7,-0.1 -1,-0.4 -0.3,-0.3 -0.4,-0.6 -0.4,-1 v -8 c 0,-0.1 0,-0.2 0,-0.3 v -8.4 c 0,-1.9 0.4,-3.6 1.3,-5.1 0.9,-1.5 2.1,-2.7 3.6,-3.6 1.5,-0.9 3.2,-1.3 5.1,-1.3 1.9,-0.1 3.6,0.3 5.1,1.2 z m -1.4,15.2 c 1.1,-0.6 2,-1.5 2.6,-2.7 0.6,-1.1 1,-2.4 1,-3.8 0,-1.4 -0.3,-2.7 -1,-3.8 -0.6,-1.1 -1.5,-2 -2.6,-2.7 -1.1,-0.7 -2.3,-1 -3.7,-1 -1.4,0 -2.6,0.3 -3.7,1 -1.1,0.7 -2,1.6 -2.6,2.7 -0.6,1.1 -1,2.4 -1,3.8 0,0.4 0,0.7 0,0.9 0,0 0,0.1 0,0.2 0.2,1.9 1,3.4 2.3,4.6 1.3,1.2 2.9,1.8 4.8,1.8 1.6,-0.1 2.8,-0.4 3.9,-1 z"
   id="path2"
   style="fill:#ffffff;fill-opacity:1" />
			<path
   d="m 292.1,278.8 c 1.5,0.9 2.7,2.1 3.6,3.6 0.9,1.5 1.3,3.2 1.3,5.1 v 8.4 c 0,0.4 -0.1,0.7 -0.4,1 -0.3,0.3 -0.6,0.4 -1,0.4 -0.4,0 -0.7,-0.1 -1,-0.4 -0.3,-0.3 -0.4,-0.6 -0.4,-1 v -2.2 c -0.8,1.1 -1.9,2.1 -3.2,2.7 -1.3,0.6 -2.7,1 -4.3,1 -1.8,0 -3.5,-0.4 -4.9,-1.3 -1.5,-0.9 -2.6,-2.1 -3.5,-3.6 -0.8,-1.5 -1.3,-3.2 -1.3,-5.1 0,-1.9 0.4,-3.6 1.3,-5.1 0.9,-1.5 2.1,-2.7 3.6,-3.6 1.5,-0.9 3.2,-1.3 5.1,-1.3 1.8,0.1 3.5,0.5 5.1,1.4 z m -1.4,15.2 c 1.1,-0.6 2,-1.5 2.6,-2.7 0.6,-1.1 1,-2.4 1,-3.8 0,-1.4 -0.3,-2.7 -1,-3.8 -0.6,-1.1 -1.5,-2 -2.6,-2.7 -1.1,-0.7 -2.3,-1 -3.7,-1 -1.4,0 -2.6,0.3 -3.7,1 -1.1,0.7 -2,1.6 -2.6,2.7 -0.6,1.1 -1,2.4 -1,3.8 0,1.4 0.3,2.7 1,3.8 0.6,1.1 1.5,2 2.6,2.7 1.1,0.6 2.4,1 3.7,1 1.3,-0.1 2.6,-0.4 3.7,-1 z"
   id="path4"
   style="fill:#ffffff;fill-opacity:1" />
			<path
   d="m 325.4,279 v 8.4 c 0,1.9 -0.4,3.6 -1.3,5.1 -0.9,1.5 -2.1,2.7 -3.6,3.6 -1.5,0.9 -3.2,1.3 -5.1,1.3 -1.9,0 -3.6,-0.4 -5.1,-1.3 -1.5,-0.9 -2.7,-2.1 -3.6,-3.6 -0.9,-1.5 -1.3,-3.2 -1.3,-5.1 0,-1.9 0.4,-3.6 1.3,-5.1 0.8,-1.5 2,-2.7 3.5,-3.6 1.5,-0.9 3.1,-1.3 4.9,-1.3 1.6,0 3,0.3 4.3,1 1.3,0.7 2.4,1.6 3.2,2.7 v -10.5 c 0,-0.4 0.1,-0.7 0.4,-1 0.3,-0.3 0.6,-0.4 1,-0.4 0.4,0 0.7,0.1 1,0.4 0.3,0.3 0.4,0.6 0.4,1 v 8 c 0,0.2 0,0.3 0,0.4 z m -6.3,15 c 1.1,-0.7 2,-1.6 2.6,-2.7 0.6,-1.1 1,-2.4 1,-3.8 0,-0.4 0,-0.7 0,-0.9 0,0 0,-0.1 0,-0.2 -0.2,-1.9 -1,-3.4 -2.3,-4.6 -1.3,-1.2 -2.9,-1.8 -4.8,-1.8 -1.4,0 -2.6,0.3 -3.7,1 -1.1,0.6 -2,1.5 -2.6,2.7 -0.6,1.1 -1,2.4 -1,3.8 0,1.4 0.3,2.7 1,3.8 0.6,1.1 1.5,2 2.6,2.7 1.1,0.7 2.4,1 3.7,1 1.2,-0.1 2.4,-0.4 3.5,-1 z"
   id="path6"
   style="fill:#ffffff;fill-opacity:1" />
			<path
   d="m 349.1,278.7 c 1.4,0.8 2.4,2 3.2,3.4 0.8,1.5 1.1,3.1 1.1,5 0,0.4 -0.1,0.7 -0.4,0.9 -0.2,0.2 -0.6,0.3 -0.9,0.3 h -14.5 c 0.2,2 1,3.6 2.3,4.8 1.3,1.2 3,1.8 5,1.8 0.9,0 1.7,-0.1 2.6,-0.4 0.9,-0.3 1.6,-0.7 2.1,-1.1 0.3,-0.2 0.6,-0.4 1,-0.4 0.3,0 0.5,0.1 0.8,0.3 0.3,0.3 0.5,0.6 0.5,1 0,0.3 -0.1,0.6 -0.4,0.8 -0.8,0.7 -1.8,1.2 -3,1.7 -1.2,0.4 -2.4,0.7 -3.5,0.7 -1.9,0 -3.6,-0.4 -5.1,-1.3 -1.5,-0.8 -2.7,-2 -3.5,-3.6 -0.8,-1.5 -1.3,-3.2 -1.3,-5.1 0,-1.9 0.4,-3.7 1.2,-5.2 0.8,-1.5 1.9,-2.7 3.3,-3.6 1.4,-0.8 3,-1.3 4.9,-1.3 1.6,0.1 3.2,0.5 4.6,1.3 z m -9.2,2.9 c -1.2,1.1 -1.9,2.6 -2.2,4.4 h 13.1 c -0.2,-1.8 -0.9,-3.3 -2,-4.4 -1.1,-1.1 -2.6,-1.7 -4.4,-1.7 -1.8,0 -3.4,0.6 -4.5,1.7 z"
   id="path8"
   style="fill:#ffffff;fill-opacity:1" />
			<path
   d="m 362.9,295.5 c -0.9,-1.2 -1.4,-2.6 -1.4,-4.5 v -20.4 c 0,-0.4 0.1,-0.7 0.4,-1 0.3,-0.3 0.6,-0.4 1,-0.4 0.4,0 0.7,0.1 1,0.4 0.3,0.3 0.4,0.6 0.4,1 V 291 c 0,1 0.2,1.9 0.6,2.5 0.4,0.6 1,1 1.6,1 h 0.9 c 0.4,0 0.6,0.1 0.9,0.4 0.2,0.3 0.3,0.6 0.3,1 0,0.4 -0.1,0.7 -0.4,1 -0.3,0.3 -0.7,0.4 -1.2,0.4 h -0.5 c -1.5,0 -2.7,-0.6 -3.6,-1.8 z"
   id="path10"
   style="fill:#ffffff;fill-opacity:1" />
			<path
   d="m 394.9,296.1 c -1.5,-0.9 -2.6,-2.1 -3.5,-3.6 -0.8,-1.5 -1.3,-3.2 -1.3,-5.1 0,-1.9 0.4,-3.6 1.2,-5.1 0.8,-1.5 1.9,-2.7 3.4,-3.6 1.4,-0.9 3,-1.3 4.8,-1.3 3,0 5.4,1.1 7.3,3.4 0.2,0.2 0.3,0.5 0.3,0.8 0,0.4 -0.2,0.7 -0.6,1 -0.2,0.1 -0.4,0.2 -0.7,0.2 -0.4,0 -0.7,-0.2 -1,-0.5 -0.7,-0.8 -1.5,-1.4 -2.4,-1.8 -0.9,-0.4 -1.8,-0.6 -2.9,-0.6 -1.3,0 -2.5,0.3 -3.5,1 -1,0.6 -1.8,1.5 -2.4,2.7 -0.6,1.1 -0.8,2.4 -0.8,3.9 0,1.4 0.3,2.7 0.9,3.8 0.6,1.1 1.4,2 2.5,2.7 1.1,0.6 2.3,1 3.7,1 1.9,0 3.5,-0.5 4.6,-1.5 0.3,-0.3 0.6,-0.4 1,-0.4 0.3,0 0.6,0.1 0.8,0.3 0.3,0.3 0.5,0.6 0.5,1 0,0.3 -0.1,0.6 -0.4,0.8 -1.7,1.6 -3.9,2.4 -6.5,2.4 -1.9,-0.2 -3.5,-0.6 -5,-1.5 z"
   id="path12"
   style="fill:#ffffff;fill-opacity:1" />
			<path
   d="m 417.4,295.5 c -0.9,-1.2 -1.4,-2.6 -1.4,-4.5 v -20.4 c 0,-0.4 0.1,-0.7 0.4,-1 0.3,-0.3 0.6,-0.4 1,-0.4 0.4,0 0.7,0.1 1,0.4 0.3,0.3 0.4,0.6 0.4,1 V 291 c 0,1 0.2,1.9 0.6,2.5 0.4,0.6 1,1 1.6,1 h 0.9 c 0.4,0 0.6,0.1 0.9,0.4 0.2,0.3 0.3,0.6 0.3,1 0,0.4 -0.1,0.7 -0.4,1 -0.3,0.3 -0.7,0.4 -1.2,0.4 H 421 c -1.5,0 -2.7,-0.6 -3.6,-1.8 z"
   id="path14"
   style="fill:#ffffff;fill-opacity:1" />
			<path
   d="m 448.4,278 c 0.3,0.3 0.4,0.6 0.4,1 v 16.9 c 0,0.4 -0.1,0.7 -0.4,1 -0.3,0.3 -0.6,0.4 -1,0.4 -0.4,0 -0.7,-0.1 -1,-0.4 -0.3,-0.3 -0.4,-0.6 -0.4,-1 v -1.2 c -0.8,0.9 -1.7,1.6 -2.9,2.1 -1.1,0.5 -2.3,0.8 -3.7,0.8 -1.7,0 -3.2,-0.4 -4.6,-1.1 -1.4,-0.7 -2.4,-1.8 -3.2,-3.1 -0.8,-1.4 -1.1,-3 -1.1,-4.9 V 279 c 0,-0.4 0.1,-0.7 0.4,-1 0.3,-0.3 0.6,-0.4 1,-0.4 0.4,0 0.7,0.1 1,0.4 0.3,0.3 0.4,0.6 0.4,1 v 9.3 c 0,2.1 0.6,3.7 1.8,4.9 1.2,1.1 2.7,1.7 4.6,1.7 1.2,0 2.2,-0.2 3.2,-0.7 0.9,-0.5 1.7,-1.1 2.2,-1.9 0.5,-0.8 0.8,-1.7 0.8,-2.7 V 279 c 0,-0.4 0.1,-0.7 0.4,-1 0.3,-0.3 0.6,-0.4 1,-0.4 0.5,0 0.8,0.2 1.1,0.4 z"
   id="path16"
   style="fill:#ffffff;fill-opacity:1" />
			<path
   d="m 474.6,278.8 c 1.5,0.9 2.6,2.1 3.5,3.6 0.8,1.5 1.3,3.2 1.3,5.1 0,1.9 -0.4,3.6 -1.3,5.1 -0.9,1.5 -2.1,2.7 -3.6,3.6 -1.5,0.9 -3.2,1.3 -5.1,1.3 -1.9,0 -3.6,-0.4 -5.1,-1.3 -1.5,-0.9 -2.7,-2.1 -3.6,-3.6 -0.9,-1.5 -1.3,-3.2 -1.3,-5.1 V 279 c 0,-0.1 0,-0.3 0,-0.3 v -8 c 0,-0.4 0.1,-0.7 0.4,-1 0.3,-0.3 0.6,-0.4 1,-0.4 0.4,0 0.7,0.1 1,0.4 0.3,0.3 0.4,0.6 0.4,1 v 10.5 c 0.8,-1.1 1.9,-2.1 3.2,-2.7 1.3,-0.7 2.7,-1 4.3,-1 1.8,0 3.4,0.4 4.9,1.3 z m -1.5,15.2 c 1.1,-0.7 2,-1.6 2.6,-2.7 0.6,-1.1 1,-2.4 1,-3.8 0,-1.4 -0.3,-2.7 -1,-3.8 -0.6,-1.1 -1.5,-2 -2.6,-2.7 -1.1,-0.6 -2.3,-1 -3.7,-1 -1.9,0 -3.5,0.6 -4.8,1.8 -1.3,1.2 -2.1,2.7 -2.3,4.6 0,0.1 0,0.1 0,0.2 0,0.2 0,0.5 0,0.9 0,1.4 0.3,2.7 1,3.8 0.6,1.1 1.5,2 2.6,2.7 1.1,0.7 2.3,1 3.7,1 1.2,-0.1 2.4,-0.4 3.5,-1 z"
   id="path18"
   style="fill:#ffffff;fill-opacity:1" />
		</g>
	</g>
	<path
   fill="#fdce00"
   d="m 494.2,245 c 3.3,-6.9 6.8,-13.7 9.8,-20.7 6.8,-16 10.3,-32.8 8.9,-50.4 -1.6,-19.9 -9,-37 -21.7,-51.5 C 476,105 456.9,95 436.1,88.7 415,82.3 393.3,80.3 371.5,81.6 c -31.1,2 -61.2,9.6 -90.1,22.5 -21.2,9.4 -41.2,21.3 -59.5,36.3 -19.6,16 -36.7,34.8 -49.4,58 -0.2,0.4 -0.6,0.8 -0.9,1.1 -0.3,-0.2 -0.5,-0.3 -0.8,-0.5 2.5,-4.8 4.8,-9.7 7.6,-14.3 9.8,-16.8 22.2,-31.2 36.1,-44.1 27.4,-25.4 58.6,-43.6 92.4,-56.7 26.7,-10.3 54.1,-17.1 82.4,-19.2 27.3,-2 54.3,-0.2 80.5,9.1 17.4,6.1 33.5,15.2 46.1,30.2 15.6,18.5 21.7,40.3 18.1,65.3 -3.5,24.4 -14.4,44.8 -28.6,63.3 -3.4,4.5 -7.1,8.7 -10.7,13 -0.2,-0.3 -0.3,-0.5 -0.5,-0.6 z"
   id="path24" />
	<g
   id="g38"
   style="fill:#ffffff;fill-opacity:1">
		<path
   d="m 85.5,177 v 52.9 c 0,16.3 -11.1,24.1 -25.2,24.1 -1.7,0 -3.2,-0.1 -4.8,-0.4 V 245 c 1.3,0.2 2.7,0.4 4.2,0.4 9.8,0 15.9,-6.4 15.9,-15.8 v -52.8 z"
   id="path26"
   style="fill:#ffffff;fill-opacity:1" />
		<path
   d="m 183.4,254 h -11.3 l -7,-16.8 h -39.5 l -7,16.8 h -11.3 l 32,-75.2 h 12.3 l 17.7,41.9 h -10.5 l -13.4,-32.4 -16.8,40.6 h 44.2 z"
   id="path28"
   style="fill:#ffffff;fill-opacity:1" />
		<path
   d="M 262.8,254.2 H 251.1 L 231,224.1 h -15.9 v 30.1 h -9.9 V 215.8 H 236 c 9.4,0 15.9,-6.1 15.9,-14.6 0,-8.7 -6.5,-14.5 -15.9,-14.5 h -20.8 v 20.7 h -9.9 v -29.1 h 31.9 c 14.5,0 25,8.8 25,22.7 0,13.7 -9.9,21.2 -20.7,22.1 z"
   id="path30"
   style="fill:#ffffff;fill-opacity:1" />
		<path
   d="m 314.2,178.4 c 24.7,0 40.7,16.4 40.7,37.8 0,21.5 -15.9,37.8 -40.7,37.8 h -27.1 v -8.4 h 27.1 c 19.3,0 30.5,-13.2 30.5,-29.5 0,-16.3 -10.8,-29.5 -30.5,-29.5 H 297 v 50.7 h -9.9 v -59.1 h 27.1 z"
   id="path32"
   style="fill:#ffffff;fill-opacity:1" />
		<path
   d="m 379.3,253.9 v -75.8 h 9.9 v 75.8 z"
   id="path34"
   style="fill:#ffffff;fill-opacity:1" />
		<path
   d="m 479,178.1 v 75.8 h -9.5 l -46.3,-60.4 v 60.4 h -9.9 v -75.8 h 10.1 l 45.7,59.1 v -59.1 z"
   id="path36"
   style="fill:#ffffff;fill-opacity:1" />
	</g>
</g>
</svg>
