<?xml version="1.0" encoding="UTF-8" standalone="no"?>
<!-- Generator: Adobe Illustrator 18.0.0, SVG Export Plug-In . SVG Version: 6.00 Build 0)  -->

<svg
   version="1.1"
   id="Capa_1"
   x="0px"
   y="0px"
   viewBox="0 0 598.3 308.1958"
   enable-background="new 0 0 595.3 420"
   xml:space="preserve"
   sodipodi:docname="logoblack.svg"
   inkscape:export-filename="..\..\..\..\Escritorio\logo.svg"
   inkscape:export-xdpi="96"
   inkscape:export-ydpi="96"
   inkscape:version="1.2.1 (9c6d41e410, 2022-07-14)"
   width="598.29999"
   height="308.19601"
   xmlns:inkscape="http://www.inkscape.org/namespaces/inkscape"
   xmlns:sodipodi="http://sodipodi.sourceforge.net/DTD/sodipodi-0.dtd"
   xmlns="http://www.w3.org/2000/svg"
   xmlns:svg="http://www.w3.org/2000/svg"><defs
   id="defs45">
	
	
	
</defs><sodipodi:namedview
   id="namedview43"
   pagecolor="#ffffff"
   bordercolor="#000000"
   borderopacity="0"
   inkscape:showpageshadow="2"
   inkscape:pageopacity="0"
   inkscape:pagecheckerboard="0"
   inkscape:deskcolor="#d1d1d1"
   showgrid="false"
   inkscape:zoom="1.9738095"
   inkscape:cx="297.90109"
   inkscape:cy="130.7117"
   inkscape:window-width="1920"
   inkscape:window-height="1009"
   inkscape:window-x="-8"
   inkscape:window-y="-8"
   inkscape:window-maximized="1"
   inkscape:current-layer="Capa_1" />
<g
   id="g22"
   style="fill:#1a1a1a;fill-opacity:1"
   transform="matrix(1.2165993,0,0,1.2165993,-60.658171,-70.267473)">
		<g
   id="g20"
   style="fill:#1a1a1a;fill-opacity:1">
			<path
   d="m 263.6,278.8 c 1.5,0.9 2.7,2.1 3.6,3.6 0.9,1.5 1.3,3.2 1.3,5.1 0,1.9 -0.4,3.6 -1.3,5.1 -0.8,1.5 -2,2.7 -3.5,3.6 -1.5,0.9 -3.1,1.3 -4.9,1.3 -1.6,0 -3,-0.3 -4.3,-1 -1.3,-0.7 -2.4,-1.6 -3.2,-2.7 v 10.5 c 0,0.4 -0.1,0.7 -0.4,1 -0.3,0.3 -0.6,0.4 -1,0.4 -0.4,0 -0.7,-0.1 -1,-0.4 -0.3,-0.3 -0.4,-0.6 -0.4,-1 v -8 c 0,-0.1 0,-0.2 0,-0.3 v -8.4 c 0,-1.9 0.4,-3.6 1.3,-5.1 0.9,-1.5 2.1,-2.7 3.6,-3.6 1.5,-0.9 3.2,-1.3 5.1,-1.3 1.9,-0.1 3.6,0.3 5.1,1.2 z m -1.4,15.2 c 1.1,-0.6 2,-1.5 2.6,-2.7 0.6,-1.1 1,-2.4 1,-3.8 0,-1.4 -0.3,-2.7 -1,-3.8 -0.6,-1.1 -1.5,-2 -2.6,-2.7 -1.1,-0.7 -2.3,-1 -3.7,-1 -1.4,0 -2.6,0.3 -3.7,1 -1.1,0.7 -2,1.6 -2.6,2.7 -0.6,1.1 -1,2.4 -1,3.8 0,0.4 0,0.7 0,0.9 0,0 0,0.1 0,0.2 0.2,1.9 1,3.4 2.3,4.6 1.3,1.2 2.9,1.8 4.8,1.8 1.6,-0.1 2.8,-0.4 3.9,-1 z"
   id="path2"
   style="fill:#1a1a1a;fill-opacity:1" />
			<path
   d="m 292.1,278.8 c 1.5,0.9 2.7,2.1 3.6,3.6 0.9,1.5 1.3,3.2 1.3,5.1 v 8.4 c 0,0.4 -0.1,0.7 -0.4,1 -0.3,0.3 -0.6,0.4 -1,0.4 -0.4,0 -0.7,-0.1 -1,-0.4 -0.3,-0.3 -0.4,-0.6 -0.4,-1 v -2.2 c -0.8,1.1 -1.9,2.1 -3.2,2.7 -1.3,0.6 -2.7,1 -4.3,1 -1.8,0 -3.5,-0.4 -4.9,-1.3 -1.5,-0.9 -2.6,-2.1 -3.5,-3.6 -0.8,-1.5 -1.3,-3.2 -1.3,-5.1 0,-1.9 0.4,-3.6 1.3,-5.1 0.9,-1.5 2.1,-2.7 3.6,-3.6 1.5,-0.9 3.2,-1.3 5.1,-1.3 1.8,0.1 3.5,0.5 5.1,1.4 z m -1.4,15.2 c 1.1,-0.6 2,-1.5 2.6,-2.7 0.6,-1.1 1,-2.4 1,-3.8 0,-1.4 -0.3,-2.7 -1,-3.8 -0.6,-1.1 -1.5,-2 -2.6,-2.7 -1.1,-0.7 -2.3,-1 -3.7,-1 -1.4,0 -2.6,0.3 -3.7,1 -1.1,0.7 -2,1.6 -2.6,2.7 -0.6,1.1 -1,2.4 -1,3.8 0,1.4 0.3,2.7 1,3.8 0.6,1.1 1.5,2 2.6,2.7 1.1,0.6 2.4,1 3.7,1 1.3,-0.1 2.6,-0.4 3.7,-1 z"
   id="path4"
   style="fill:#1a1a1a;fill-opacity:1" />
			<path
   d="m 325.4,279 v 8.4 c 0,1.9 -0.4,3.6 -1.3,5.1 -0.9,1.5 -2.1,2.7 -3.6,3.6 -1.5,0.9 -3.2,1.3 -5.1,1.3 -1.9,0 -3.6,-0.4 -5.1,-1.3 -1.5,-0.9 -2.7,-2.1 -3.6,-3.6 -0.9,-1.5 -1.3,-3.2 -1.3,-5.1 0,-1.9 0.4,-3.6 1.3,-5.1 0.8,-1.5 2,-2.7 3.5,-3.6 1.5,-0.9 3.1,-1.3 4.9,-1.3 1.6,0 3,0.3 4.3,1 1.3,0.7 2.4,1.6 3.2,2.7 v -10.5 c 0,-0.4 0.1,-0.7 0.4,-1 0.3,-0.3 0.6,-0.4 1,-0.4 0.4,0 0.7,0.1 1,0.4 0.3,0.3 0.4,0.6 0.4,1 v 8 c 0,0.2 0,0.3 0,0.4 z m -6.3,15 c 1.1,-0.7 2,-1.6 2.6,-2.7 0.6,-1.1 1,-2.4 1,-3.8 0,-0.4 0,-0.7 0,-0.9 0,0 0,-0.1 0,-0.2 -0.2,-1.9 -1,-3.4 -2.3,-4.6 -1.3,-1.2 -2.9,-1.8 -4.8,-1.8 -1.4,0 -2.6,0.3 -3.7,1 -1.1,0.6 -2,1.5 -2.6,2.7 -0.6,1.1 -1,2.4 -1,3.8 0,1.4 0.3,2.7 1,3.8 0.6,1.1 1.5,2 2.6,2.7 1.1,0.7 2.4,1 3.7,1 1.2,-0.1 2.4,-0.4 3.5,-1 z"
   id="path6"
   style="fill:#1a1a1a;fill-opacity:1" />
			<path
   d="m 349.1,278.7 c 1.4,0.8 2.4,2 3.2,3.4 0.8,1.5 1.1,3.1 1.1,5 0,0.4 -0.1,0.7 -0.4,0.9 -0.2,0.2 -0.6,0.3 -0.9,0.3 h -14.5 c 0.2,2 1,3.6 2.3,4.8 1.3,1.2 3,1.8 5,1.8 0.9,0 1.7,-0.1 2.6,-0.4 0.9,-0.3 1.6,-0.7 2.1,-1.1 0.3,-0.2 0.6,-0.4 1,-0.4 0.3,0 0.5,0.1 0.8,0.3 0.3,0.3 0.5,0.6 0.5,1 0,0.3 -0.1,0.6 -0.4,0.8 -0.8,0.7 -1.8,1.2 -3,1.7 -1.2,0.4 -2.4,0.7 -3.5,0.7 -1.9,0 -3.6,-0.4 -5.1,-1.3 -1.5,-0.8 -2.7,-2 -3.5,-3.6 -0.8,-1.5 -1.3,-3.2 -1.3,-5.1 0,-1.9 0.4,-3.7 1.2,-5.2 0.8,-1.5 1.9,-2.7 3.3,-3.6 1.4,-0.8 3,-1.3 4.9,-1.3 1.6,0.1 3.2,0.5 4.6,1.3 z m -9.2,2.9 c -1.2,1.1 -1.9,2.6 -2.2,4.4 h 13.1 c -0.2,-1.8 -0.9,-3.3 -2,-4.4 -1.1,-1.1 -2.6,-1.7 -4.4,-1.7 -1.8,0 -3.4,0.6 -4.5,1.7 z"
   id="path8"
   style="fill:#1a1a1a;fill-opacity:1" />
			<path
   d="m 362.9,295.5 c -0.9,-1.2 -1.4,-2.6 -1.4,-4.5 v -20.4 c 0,-0.4 0.1,-0.7 0.4,-1 0.3,-0.3 0.6,-0.4 1,-0.4 0.4,0 0.7,0.1 1,0.4 0.3,0.3 0.4,0.6 0.4,1 V 291 c 0,1 0.2,1.9 0.6,2.5 0.4,0.6 1,1 1.6,1 h 0.9 c 0.4,0 0.6,0.1 0.9,0.4 0.2,0.3 0.3,0.6 0.3,1 0,0.4 -0.1,0.7 -0.4,1 -0.3,0.3 -0.7,0.4 -1.2,0.4 h -0.5 c -1.5,0 -2.7,-0.6 -3.6,-1.8 z"
   id="path10"
   style="fill:#1a1a1a;fill-opacity:1" />
			<path
   d="m 394.9,296.1 c -1.5,-0.9 -2.6,-2.1 -3.5,-3.6 -0.8,-1.5 -1.3,-3.2 -1.3,-5.1 0,-1.9 0.4,-3.6 1.2,-5.1 0.8,-1.5 1.9,-2.7 3.4,-3.6 1.4,-0.9 3,-1.3 4.8,-1.3 3,0 5.4,1.1 7.3,3.4 0.2,0.2 0.3,0.5 0.3,0.8 0,0.4 -0.2,0.7 -0.6,1 -0.2,0.1 -0.4,0.2 -0.7,0.2 -0.4,0 -0.7,-0.2 -1,-0.5 -0.7,-0.8 -1.5,-1.4 -2.4,-1.8 -0.9,-0.4 -1.8,-0.6 -2.9,-0.6 -1.3,0 -2.5,0.3 -3.5,1 -1,0.6 -1.8,1.5 -2.4,2.7 -0.6,1.1 -0.8,2.4 -0.8,3.9 0,1.4 0.3,2.7 0.9,3.8 0.6,1.1 1.4,2 2.5,2.7 1.1,0.6 2.3,1 3.7,1 1.9,0 3.5,-0.5 4.6,-1.5 0.3,-0.3 0.6,-0.4 1,-0.4 0.3,0 0.6,0.1 0.8,0.3 0.3,0.3 0.5,0.6 0.5,1 0,0.3 -0.1,0.6 -0.4,0.8 -1.7,1.6 -3.9,2.4 -6.5,2.4 -1.9,-0.2 -3.5,-0.6 -5,-1.5 z"
   id="path12"
   style="fill:#1a1a1a;fill-opacity:1" />
			<path
   d="m 417.4,295.5 c -0.9,-1.2 -1.4,-2.6 -1.4,-4.5 v -20.4 c 0,-0.4 0.1,-0.7 0.4,-1 0.3,-0.3 0.6,-0.4 1,-0.4 0.4,0 0.7,0.1 1,0.4 0.3,0.3 0.4,0.6 0.4,1 V 291 c 0,1 0.2,1.9 0.6,2.5 0.4,0.6 1,1 1.6,1 h 0.9 c 0.4,0 0.6,0.1 0.9,0.4 0.2,0.3 0.3,0.6 0.3,1 0,0.4 -0.1,0.7 -0.4,1 -0.3,0.3 -0.7,0.4 -1.2,0.4 H 421 c -1.5,0 -2.7,-0.6 -3.6,-1.8 z"
   id="path14"
   style="fill:#1a1a1a;fill-opacity:1" />
			<path
   d="m 448.4,278 c 0.3,0.3 0.4,0.6 0.4,1 v 16.9 c 0,0.4 -0.1,0.7 -0.4,1 -0.3,0.3 -0.6,0.4 -1,0.4 -0.4,0 -0.7,-0.1 -1,-0.4 -0.3,-0.3 -0.4,-0.6 -0.4,-1 v -1.2 c -0.8,0.9 -1.7,1.6 -2.9,2.1 -1.1,0.5 -2.3,0.8 -3.7,0.8 -1.7,0 -3.2,-0.4 -4.6,-1.1 -1.4,-0.7 -2.4,-1.8 -3.2,-3.1 -0.8,-1.4 -1.1,-3 -1.1,-4.9 V 279 c 0,-0.4 0.1,-0.7 0.4,-1 0.3,-0.3 0.6,-0.4 1,-0.4 0.4,0 0.7,0.1 1,0.4 0.3,0.3 0.4,0.6 0.4,1 v 9.3 c 0,2.1 0.6,3.7 1.8,4.9 1.2,1.1 2.7,1.7 4.6,1.7 1.2,0 2.2,-0.2 3.2,-0.7 0.9,-0.5 1.7,-1.1 2.2,-1.9 0.5,-0.8 0.8,-1.7 0.8,-2.7 V 279 c 0,-0.4 0.1,-0.7 0.4,-1 0.3,-0.3 0.6,-0.4 1,-0.4 0.5,0 0.8,0.2 1.1,0.4 z"
   id="path16"
   style="fill:#1a1a1a;fill-opacity:1" />
			<path
   d="m 474.6,278.8 c 1.5,0.9 2.6,2.1 3.5,3.6 0.8,1.5 1.3,3.2 1.3,5.1 0,1.9 -0.4,3.6 -1.3,5.1 -0.9,1.5 -2.1,2.7 -3.6,3.6 -1.5,0.9 -3.2,1.3 -5.1,1.3 -1.9,0 -3.6,-0.4 -5.1,-1.3 -1.5,-0.9 -2.7,-2.1 -3.6,-3.6 -0.9,-1.5 -1.3,-3.2 -1.3,-5.1 V 279 c 0,-0.1 0,-0.3 0,-0.3 v -8 c 0,-0.4 0.1,-0.7 0.4,-1 0.3,-0.3 0.6,-0.4 1,-0.4 0.4,0 0.7,0.1 1,0.4 0.3,0.3 0.4,0.6 0.4,1 v 10.5 c 0.8,-1.1 1.9,-2.1 3.2,-2.7 1.3,-0.7 2.7,-1 4.3,-1 1.8,0 3.4,0.4 4.9,1.3 z m -1.5,15.2 c 1.1,-0.7 2,-1.6 2.6,-2.7 0.6,-1.1 1,-2.4 1,-3.8 0,-1.4 -0.3,-2.7 -1,-3.8 -0.6,-1.1 -1.5,-2 -2.6,-2.7 -1.1,-0.6 -2.3,-1 -3.7,-1 -1.9,0 -3.5,0.6 -4.8,1.8 -1.3,1.2 -2.1,2.7 -2.3,4.6 0,0.1 0,0.1 0,0.2 0,0.2 0,0.5 0,0.9 0,1.4 0.3,2.7 1,3.8 0.6,1.1 1.5,2 2.6,2.7 1.1,0.7 2.3,1 3.7,1 1.2,-0.1 2.4,-0.4 3.5,-1 z"
   id="path18"
   style="fill:#1a1a1a;fill-opacity:1" />
		</g>
	</g><path
   fill="#fdce00"
   d="m 540.5852,227.79936 c 4.01478,-8.39454 8.27288,-16.66741 11.92268,-25.18361 8.27287,-19.46559 12.53097,-39.90446 10.82773,-61.3166 C 561.38905,117.08882 552.38622,96.284971 536.93541,78.644281 518.4431,57.475453 495.20605,45.30946 469.90078,37.644885 444.23054,29.858649 417.83033,27.425451 391.30847,29.00703 c -37.83624,2.433198 -74.45588,11.679353 -109.6156,27.373484 -25.7919,11.436034 -50.12389,25.913565 -72.38766,44.162556 -23.84534,19.46559 -44.64919,42.33765 -60.1,70.56276 -0.24332,0.48664 -0.72996,0.97328 -1.09494,1.33826 -0.36498,-0.24332 -0.6083,-0.36498 -0.97328,-0.6083 3.0415,-5.83968 5.83968,-11.80102 9.24615,-17.39737 11.92268,-20.43887 27.00851,-37.9579 43.91924,-53.65203 C 233.6372,69.884766 271.5951,47.742659 312.71615,31.805208 345.19936,19.274235 378.53418,11.00136 412.96394,8.4465017 446.1771,6.0133031 479.02528,8.2031818 510.90018,19.517555 c 21.16883,7.421256 40.75608,18.49231 56.08523,36.741299 18.97895,22.507087 26.4002,49.028956 22.02045,79.443936 -4.2581,29.68502 -17.51903,54.50365 -34.79474,77.01073 -4.13644,5.4747 -8.63786,10.58442 -13.01762,15.8158 -0.24332,-0.36498 -0.36498,-0.6083 -0.6083,-0.72996 z"
   id="path24"
   style="stroke-width:1.2166" /><g
   id="g38"
   style="fill:#1a1a1a;fill-opacity:1"
   transform="matrix(1.2165993,0,0,1.2165993,-60.658171,-70.267473)">
		<path
   d="m 85.5,177 v 52.9 c 0,16.3 -11.1,24.1 -25.2,24.1 -1.7,0 -3.2,-0.1 -4.8,-0.4 V 245 c 1.3,0.2 2.7,0.4 4.2,0.4 9.8,0 15.9,-6.4 15.9,-15.8 v -52.8 z"
   id="path26"
   style="fill:#1a1a1a;fill-opacity:1" />
		<path
   d="m 183.4,254 h -11.3 l -7,-16.8 h -39.5 l -7,16.8 h -11.3 l 32,-75.2 h 12.3 l 17.7,41.9 h -10.5 l -13.4,-32.4 -16.8,40.6 h 44.2 z"
   id="path28"
   style="fill:#1a1a1a;fill-opacity:1" />
		<path
   d="M 262.8,254.2 H 251.1 L 231,224.1 h -15.9 v 30.1 h -9.9 V 215.8 H 236 c 9.4,0 15.9,-6.1 15.9,-14.6 0,-8.7 -6.5,-14.5 -15.9,-14.5 h -20.8 v 20.7 h -9.9 v -29.1 h 31.9 c 14.5,0 25,8.8 25,22.7 0,13.7 -9.9,21.2 -20.7,22.1 z"
   id="path30"
   style="fill:#1a1a1a;fill-opacity:1" />
		<path
   d="m 314.2,178.4 c 24.7,0 40.7,16.4 40.7,37.8 0,21.5 -15.9,37.8 -40.7,37.8 h -27.1 v -8.4 h 27.1 c 19.3,0 30.5,-13.2 30.5,-29.5 0,-16.3 -10.8,-29.5 -30.5,-29.5 H 297 v 50.7 h -9.9 v -59.1 h 27.1 z"
   id="path32"
   style="fill:#1a1a1a;fill-opacity:1" />
		<path
   d="m 379.3,253.9 v -75.8 h 9.9 v 75.8 z"
   id="path34"
   style="fill:#1a1a1a;fill-opacity:1" />
		<path
   d="m 479,178.1 v 75.8 h -9.5 l -46.3,-60.4 v 60.4 h -9.9 v -75.8 h 10.1 l 45.7,59.1 v -59.1 z"
   id="path36"
   style="fill:#1a1a1a;fill-opacity:1" />
	</g>
</svg>
